<?xml version="1.0" encoding="utf-8"?>
<!-- Generator: Adobe Illustrator 25.3.0, SVG Export Plug-In . SVG Version: 6.00 Build 0)  -->
<svg version="1.1" id="Calque_1" xmlns="http://www.w3.org/2000/svg" xmlns:xlink="http://www.w3.org/1999/xlink" x="0px" y="0px"
	 viewBox="0 0 591 591" style="enable-background:new 0 0 591 591;" xml:space="preserve">
<style type="text/css">
	.st0{fill:#139DAC;}
</style>
<g>
	<g>
		<path class="st0" d="M315.32,86h-60.01c-1.42,0-2.56,1.19-2.56,2.65v140.32c0,1.47,1.15,2.65,2.56,2.65h60.01
			c1.42,0,2.56-1.19,2.56-2.65V88.65C317.89,87.19,316.74,86,315.32,86z"/>
		<path class="st0" d="M448.17,136.7h-62.58c-1.42,0-2.56,1.15-2.56,2.56v228.13c0,10.11-8.19,18.3-18.3,18.3h-44.27
			c-1.42,0-2.56-1.15-2.56-2.56V281.31c0-1.42-1.15-2.56-2.56-2.56h-60.01c-1.42,0-2.56,1.15-2.56,2.56v101.82
			c0,1.42-1.15,2.56-2.56,2.56h-44.27c-10.11,0-18.3-8.19-18.3-18.3V139.27c0-1.42-1.15-2.56-2.56-2.56h-62.58v263.8
			c0,31.42,25.47,56.9,56.9,56.9h206.9c34.19,0,61.91-27.72,61.91-61.91V136.7z"/>
	</g>
</g>
</svg>
